<svg xmlns="http://www.w3.org/2000/svg" width="2012.646" height="2373.91" viewBox="0 0 2012.646 2373.91">
  <g id="Group_131" data-name="Group 131" transform="translate(-4821.747 -10003.321)">
    <path id="Path_3" data-name="Path 3" d="M467.286,128.01C413.145,179.715,360.22,228.871,317.348,291.016,195.683,467.387,139.51,738.1,291.317,913.922c139.447,161.508,369.74,129.318,534.72,27.429,3.441-23.052,8.43-105.462,29.759-116.451,16.413-8.458,80.043-12.693,105-18.364,17.907-4.067,39.8-7.27,54.766-18.345-48.721-7.215-97.786,2.006-146.192,6.831,24.651-45.432,69.36-82.8,120.2-95.391,26.451,31.185,51.175,60.8,94.34,67.958l13.945-29.535c-18.318-8.951-72.061-35.557-77.224-55.868-2.5-9.833,14.142-24.276,16.742-36.654C1048.4,593.059,999,570.793,1003.737,534.5c3.527-27,41.625-79.527,67-89.045,20.616-7.731,60.231,39.729,79.586-15.983,13.022-37.481,3.061-68.926-1.581-106.3L1232.6,219.75c24.454,20.721,51.531,35.526,84.562,36.184-16,52.372-41.6,103.314-36.586,159.867-10.888,2.509-7.388-1.837-10.185-5.935-28.626-41.977-61.634-84.695-117.707-87.733l66.253,79.961-11.4-31.957c97.1,78.75,78.759,175.361,40.008,279.932-4.729,12.757-29.284,72.819-35.247,78.983-13.379,13.817-54.844,16.714-73.368,15.732,7.946,53.144-20.292,40.629-47.99,59.386C892.052,993.083,720.41,1255.4,431.669,1310.039c-64.732,12.25-187.712,15.59-248.784-8.965-30.116-12.109-78.042-147.434-87.98-181.6C75.641,1053.227,62.8,983.049,65.242,913.89L96.4,980.906c131.273,211.709,371.663,249.318,580.713,122.226C792.5,1032.981,947.568,909.924,1056.265,824.32c12.6-9.92,24.1-21.841,36.979-31.56-2.838-5.871-12.615-.617-16.915,1.366-114.893,53.025-231.393,180.611-344.417,249.579C346.165,1279.1,14.254,988.742,125.9,570.194,167.693,413.5,284.02,245.407,418.268,154.338c14.3-9.7,32.327-21.745,49.018-26.328m657.933,598.533c-37.029,7.018-38.843,78.33,3.929,47.323Z" transform="translate(4756.802 10414.8)" fill="#f6df88"/>
    <path id="Path_4" data-name="Path 4" d="M929.049,269c12.748,58.294,23.075,113.238,18.259,173.625-10.514,2.632-7.512-1.974-10.445-5.743-22.777-29.225-35.283-77.329-44.413-113.005-7.854-1.138-4.839,10.82-4.45,15.86,3.011,39.122,17.5,76.159,31.87,112.051-27.954-32.574-37.317-85.869-41.1-127.933-10.066-.585-8.435-1.741-9.289,6.932-.987,9.988,4.478,50.357,6.771,61.858C902.525,524.561,1075.734,667.22,1056.594,805.5c-8.005,57.837-127.727,165.734-173.168,206.08-36.631,32.524-147.955,109.985-167.091,143.61-7.882,13.849-25.505,70.548-34,75.849-12.926,8.069-68.547-13.264-82.629-23.573L686.841,972.7,574.913,1215.145l-66.221-14.073c31.856-56.686,67.263-111.721,98.334-168.9C695.019,870.225,794.61,687.5,836.3,507.536c1.435-6.187,10.116-30.952,1.426-32.871C754.83,736.553,606.016,969.3,417.39,1167.009c-8.458,3.8-104.945-52.751-114.23-68.684,148.193-134.042,284.373-285.63,369.973-468.338-109.2,158.949-242.917,310.751-397.863,426.827-12.044,9.024-79.07,58.376-86.326,60.364-7.064,1.937-40.186-20.424-43.618-25.606-4.336-6.552-2.262-7.064,2.531-11.391,173.785-95.112,317.185-238.841,435.833-395.757C670.4,569.75,757.037,441.63,838.7,322.593c7.023-10.235,15.362-31.857,21.557-37.842C873,272.441,911.115,272.661,929.049,269M805.635,776.168c23.3-94.1,43.458-190.586,45.7-287.809L802.441,761.57ZM636.671,831.026C706.109,753.135,752.916,657.3,791.932,561.448l-11.478,13.607Z" transform="translate(5098.379 10997.841)" fill="#f6df88"/>
    <path id="Path_5" data-name="Path 5" d="M291.005,1175.466l158.4-67.711c190.326-96.1,311.6-344.815,177.011-534.971-28.123-39.729-69.031-61.62-95.652-96.255-42.553-55.36,5.492-109.894,70.105-92.942,52.888,13.877,114.262,114.308,134.12,162.874,76.763,187.776,4.167,362.406-137.866,491.929l57.238-40.954c235.807-220.935,195.9-528.912-64.933-707.509-6.47-4.432-68.547-39.565-65.413-41.918,232.965,55.781,393.18,287.462,333.214,527.359-61.52,246.1-324.107,396.428-566.22,400.1" transform="translate(5669.127 10884.612)" fill="#f6df88"/>
    <path id="Path_6" data-name="Path 6" d="M585.151,246.92C683.37,342.362,791.806,519.3,692,649.435c-116.8,152.287-348.58,17.006-287.261-145.616,24.93-66.121,94.651-110.543,159.026-64.275,104.009,74.743-23.838,238.462-123.227,141.5-12.67-12.36-14.786-28.3-27.214-38.989,2.691,141.056,191.925,185.139,249.131,50.417C714.464,470,607.4,338.7,520.528,263.461c-34.667-30.029-116.839-73.043-139.3-98.3-7.343-8.252-44.746-84.311-41.013-89.163C426.86,123.273,513.94,177.724,585.151,246.92" transform="translate(5850.39 10160.259)" fill="#f6df88"/>
    <path id="Path_7" data-name="Path 7" d="M99.219,788.066c100.052,15.919,198.372,5.561,293.539-28.59C626.249,675.677,763.736,453.893,935.314,290L749.832,545.4C636.182,690.276,512.275,825.529,351.877,919.64c-18.217,10.688-76.557,45.834-92.723,49.251-5.849,1.238-7,.813-12.36-1.371-16.44-6.689-82.392-85.375-97.214-104.214-5.643-7.173-54.721-71.293-50.362-75.241" transform="translate(4919.726 11035.142)" fill="#f6df88"/>
    <path id="Path_8" data-name="Path 8" d="M553.518,724.353c4.364-.3,12.8-7.74,20.561-4.523,7.672,5.775-51.783,22.608-59.377,18.277l13.685,4.569c11.153,8.343-81.537,26.634-89.173,27.3C217.988,789.1,91.888,604.457,117.726,398.222c5.643-45.075,39.117-168,70.612-198.97,27.726-27.269,74.336-8.014,69.671,23.678-2.582,17.527-48.849,66.66-60.8,94.852C118.8,502.7,232.82,733.13,441.55,742.584L360.767,716.06C226.711,649.039,144.918,456.04,249.621,331.406c-49.156,143.107,17.258,314.068,160.045,372.307,14.393,5.871,57.572,20.639,70.745,20.639,23.746,0,49.782,1.59,73.107,0" transform="translate(4972.295 10621.405)" fill="#f6df88"/>
    <path id="Path_9" data-name="Path 9" d="M435.1,460.429c101.774,8.978,180.9,78.344,261.637,90.2C805.863,566.64,846.931,487.15,809.7,391.969,782.089,321.411,720.355,222.986,812.013,168c-33.981,74.332,55.31,130.067,87.619,188.863,45.592,82.968,33.2,199.14-51.4,251.685-137.556,85.444-244.087-59.555-362.045-107.824L346,460.429c28.932,1.841,60.519-2.522,89.1,0" transform="translate(5908.684 10546.087)" fill="#f6df88"/>
    <path id="Path_10" data-name="Path 10" d="M450.8,264.883c11.1,8.307,28.484-39.533,27.575-48.086l-18.565-68.483c24.792-14.27,51.5,29.476,54.5,50.723,5.008,35.452-13.292,89.268-49.854,97.909,15.348,42.3,38.381,64.38,41.315,111.712,1.572,25.327,4.688,85.289-32.14,80.121-.187-13.671,14.585-12.41,22.193-25.752,3.591-6.305,6.21-12.442,5.154-19.917l-47.926,31.934-29.7-22.75c30.751,9.714,81.382-1.193,77.631-41.168C488.228,436.813,404.3,452.069,396.4,426.3c-4.24-13.826,15.051-52.272-16.527-69.968l-45.724,31.843c-12.62-.329-47.14-56.69-70.74-45.582-1.193-16.659,2.349-35.2-1.019-51.513C259.8,278.591,246.549,268,245.124,257.718c-2.024-14.6,9.509-27.178,9.367-40.858-.187-17.966-20.767-28.146-10.509-51,37.248-82.977,164.971-68.346,201.031,11.135,16.728,36.869-.932,53.318,5.789,87.889M395.935,164.434c-41.717,3.847-77.156-30.7-118.767-13.694-1.069,6.671,8.056,6.269,12.762,7.663,32.259,9.545,80,34.635,106.005,6.031m13.685,9.116c-20.63,5.94-28.8,15.572-52.454,13.808-34.74-2.591-79.655-44.111-107.445-9.307,53.647-7.79,85.435,45.774,139.557,18.524,4.263-2.148,26.52-17.107,20.342-23.024m3.441,46.77c23.321,24.084-27.726,46.757-8.284,70.014,21.2,8.567,35.484-4.163,25.368-25.336-2.042-4.272-10.221-7.85-10.961-12.117-.914-5.277,9.234-11.3,8.864-21.813-.352-10.025-11.779-27.877-24.071-24.843L359.4,223.742c15.8,5.323,41.566-15.91,53.656-3.422" transform="translate(5460.765 10318.123)" fill="#f6df88"/>
    <path id="Path_11" data-name="Path 11" d="M276.005,971.022l48-9.042c247.97-4.313,494.246-110.3,641.082-313.886,45.655-63.3,103.515-175.526,96.734-255-2.134-25.03-29.17-88.113,27.763-68.831,34.424,11.661,1.7,112.009-6.155,140.613C985.341,821.906,645.411,1047.36,276.005,971.022" transform="translate(5658.857 11182.212)" fill="#f6df88"/>
    <path id="Path_12" data-name="Path 12" d="M529.826,875.945C634.8,660.74,574.494,390.623,379,250.01c87.148,33.748,212.779,111.84,248.935,201.081,54.913,135.522-1.691,320.6-98.11,424.853" transform="translate(5995.693 10874.282)" fill="#f6df88"/>
    <path id="Path_13" data-name="Path 13" d="M830.535,189.466l27.388,63.9c-53.122-25.889-107.4-49.882-164.478-66.221C510.888,134.882,337.176,156.631,168,239.635c116.921-81.46,288.846-128.787,432-118.973,44.317,3.039,98.631,34.625,134.572-4.3C724,121.325,648.571,92.11,661.5,79.782L748.285,97.99c-7.809-21.247-24.139-51.911-6.854-72.97,5.191.119,13.493,45.267,18.236,54.78,22.174,44.472,94.377,53.478,125.37,89.675,1.037,5.94-25.935,27.42-30.339,28.594-10.984,2.915-13.95-10.39-24.162-8.6m-65.289-39.793c-16.344-13.168-78.453-3.08-90.068,16.856,35.32,5.012,68.1-16.189,100.522,0,.763-.631-8.924-15.622-10.454-16.856" transform="translate(5190.364 9978.302)" fill="#f6df88"/>
    <path id="Path_14" data-name="Path 14" d="M338.157,339.21c18.8,15.663,80.295-23.152,104.968-16.152,19.214,5.456,40.6,61.405,34.685,80.889-32.944,6.936-162.367,30.783-184.751,14.635-9.8-7.064-48.991-73.418-57.581-88.633-25.208-44.678-46.277-92.937-67.4-139.648l40.771-25.848Z" transform="translate(5178.201 10526.895)" fill="#f6df88"/>
    <path id="Path_15" data-name="Path 15" d="M351.859,65.259c6.26-1.458,7.594,3.427,10.395,7.274,18.117,24.9,50.01,96.671,63.978,127.919,8.325,18.62,34.867,75.177,35.768,91.384.758,13.644-25.4,93.582-31.866,112.274-2.742,7.928-13.927,42.727-19.6,44.148-18.1-2.8-73.194-22.8-75.173-43.024-1.951-19.99,40.328-71.138,41.388-95.638L322.1,94.406c-1.179-6.337,27.539-28.631,29.764-29.147" transform="translate(5769.085 10120.981)" fill="#f6df88"/>
    <path id="Path_16" data-name="Path 16" d="M183,607.408l34.324-9.088,198.728-9.166c-6.694-39.076,18.185-70.018,29.723-105.165,11.176,4.98,18.277,11,30.659,15.037,11.724,3.82,45.121,6.991,48.31,8.851,2.321,1.348,3.441,9.819,7.539,12.789,40.625,29.426,104.918,42.2,151.985,62.955,7.174,3.167,11.953,11.839,18.286,13.7,21.05,6.173,58.07-2.664,81.249,1l61.73,9.093Z" transform="translate(5247.588 11765.194)" fill="#f6df88"/>
    <path id="Path_17" data-name="Path 17" d="M153.632,707.782c-12.419,1.252-18.332-13.635-17.363-23.965.7-7.462,20.616-69.475,24.633-76.178,10.326-17.249,31.683-20.136,40.744-41.5,11.053-26.063,1.421-55.7,10.308-76.507,10.578-24.756,48.52-17.417,68.529-32.487l10.112,1.462L331.5,503.8c-37.253,43.65-67.537,98.256-111.667,135.358-24.107,20.273-62.922,31.413-66.2,68.625" transform="translate(5051.978 11669.375)" fill="#f6df88"/>
    <path id="Path_18" data-name="Path 18" d="M417.791,213.343c3.45,4.007,11.19,5.666,14.695,10.578l1.672,6.424c-33.547,28.74-69.63,59.317-68.255,107.943-16.847-3.569-31.861-14.443-49.516-15.677-13.114-.914-43.362,10.843-48.9,2.211-.452-34.831-6.84-60.172-29.48-86.979,49.37-24.569,99.736-41.5,153.361-54.83,9.755.3,19.583,22.38,26.428,30.33" transform="translate(5446.117 10596.318)" fill="#f6df88"/>
    <path id="Path_19" data-name="Path 19" d="M239.444,119c18.958,14.749,22.883,52.016,13.708,73.062l82.223-31.916c.749,29.028-35.685,33.378-53.556,44.513-4.738,2.952-7.95-.224-5.83,10.249l73.116,22.937c-8.005,15.988-22.43,13.571-36.586,9.125l4.642,9.07c-20.507,1.517-46.629-4.222-65.34,5.561-12.14,6.342-14.366,20.42-26.446,28.384-4.99,3.285-56.379,27.374-58.984,25.492-16.175-40.026,36.343-71.878,56.777-100.806,2.641-3.742,16.276-27.735,16.276-29.417Z" transform="translate(5156.954 10349.561)" fill="#f6df88"/>
    <path id="Path_20" data-name="Path 20" d="M470.341,217.369C522.476,215.8,544.8,294,490.249,318.582,413.724,353.061,385,219.942,470.341,217.369" transform="translate(6138.767 10727.687)" fill="#f6df88"/>
    <path id="Path_21" data-name="Path 21" d="M260.04,166.6c-.909-6.507,12.414-8.485,16.467-8.777,34.063-2.472,67.1,15.581,88.556,40.808,1.732-49.5-66.048-70.366-105.018-50.279,31.377-124.3,190.348-28.932,107.353,63.9C340.618,179.505,302.657,163,260.04,166.6" transform="translate(5529.044 10232.646)" fill="#f6df88"/>
    <path id="Path_22" data-name="Path 22" d="M363.709,424c-5.734,22.362-21.037,45.4-32.816,65.376-22.43,38.043-51.289,83.658-77.644,118.831-10.7,14.283-21.589,40.57-40.241,23.623Z" transform="translate(5348.12 11551.081)" fill="#f6df88"/>
    <path id="Path_23" data-name="Path 23" d="M462.84,301.578c42.151-12.7,47.017,47.309,3.87,40.25-21.434-3.509-22.065-34.767-3.87-40.25" transform="translate(6279.404 11043.565)" fill="#f6df88"/>
    <path id="Path_24" data-name="Path 24" d="M252.932,180.793c-23.7-3.646-15.622-38.029-13.635-54.789,24.637,3.792,19.68,36.8,13.635,54.789" transform="translate(5434.668 10374.427)" fill="#f6df88"/>
    <path id="Path_25" data-name="Path 25" d="M269.49,283.774l-36.485-86.769c32.131,12.25,39.665,56.091,36.485,86.769" transform="translate(5422.163 10648.71)" fill="#f6df88"/>
    <path id="Path_26" data-name="Path 26" d="M327.778,501.87c1.22,7.617-11,4.853-16.1,4.7-24.025-.722-54.657-8.809-70.676-27.561Z" transform="translate(5454.37 11747.423)" fill="#f6df88"/>
    <path id="Path_27" data-name="Path 27" d="M404.21,188.646c-31.071-3.226-71.11-12.419-82.2-45.646,10.518,6.689,19.255,16.2,30.468,22.033,16.668,8.668,38.756,10.614,51.732,23.614" transform="translate(5766.588 10439.749)" fill="#f6df88"/>
    <path id="Path_28" data-name="Path 28" d="M136.711,169.19c16.874-10.541,38.692,13.219,22.476,24.8-17.623,12.584-35.749-16.5-22.476-24.8" transform="translate(5033.718 10530.188)" fill="#f6df88"/>
    <path id="Path_29" data-name="Path 29" d="M181.115,452.008c3.934,25.711,42.727,27.493,41.164,54.794-14.338-8.906-51.769-35.882-50.252-52.509Z" transform="translate(5187.466 11651.047)" fill="#f6df88"/>
    <path id="Path_30" data-name="Path 30" d="M318.839,259l3.929,47.323C280,337.333,281.81,266.021,318.839,259" transform="translate(5644.799 10886.811)" fill="#f6df88"/>
    <path id="Path_31" data-name="Path 31" d="M290.48,604.814l-3.189-14.6,48.886-273.211c-2.239,97.219-22.394,193.707-45.7,287.809" transform="translate(5631.58 11119.911)" fill="#f6df88"/>
    <path id="Path_32" data-name="Path 32" d="M251.01,602.579,394.794,346.608,406.271,333c-39.016,95.853-85.823,191.687-155.261,269.578" transform="translate(5495.116 11181.152)" fill="#f6df88"/>
    <path id="Path_33" data-name="Path 33" d="M402.9,131.3c6.177,5.917-16.074,20.877-20.337,23.024C328.435,181.571,296.647,128.006,243,135.8c27.79-34.8,72.705,6.717,107.445,9.307,23.659,1.764,31.824-7.868,52.454-13.808" transform="translate(5464.338 10358.646)" fill="#f6df88"/>
    <path id="Path_34" data-name="Path 34" d="M367.839,136.407c-26,28.608-73.747,3.514-106-6.031-4.711-1.394-13.835-.992-12.762-7.663,41.607-17.007,77.046,17.541,118.763,13.694" transform="translate(5486.157 10343.182)" fill="#f6df88"/>
    <path id="Path_35" data-name="Path 35" d="M320.661,145.519c-12.09-12.488-37.86,8.745-53.656,3.422l44.573-17.518c12.291-3.034,23.719,14.818,24.071,24.843.37,10.509-9.778,16.536-8.864,21.813.74,4.268,8.919,7.845,10.961,12.117,10.116,21.174-4.167,33.9-25.368,25.336-19.442-23.257,31.605-45.93,8.284-70.014" transform="translate(5554.241 10394.493)" fill="#f6df88"/>
    <path id="Path_36" data-name="Path 36" d="M369.068,56.942c1.531,1.234,11.217,16.225,10.454,16.856C347.1,57.609,314.32,78.81,279,73.8c11.615-19.935,73.724-30.024,90.068-16.856" transform="translate(5601.376 10071.032)" fill="#f6df88"/>
  </g>
</svg>
