<svg id="Group_4089" data-name="Group 4089" xmlns="http://www.w3.org/2000/svg" xmlns:xlink="http://www.w3.org/1999/xlink" width="2602.738" height="2308.84" viewBox="0 0 2602.738 2308.84">
  <defs>
    <clipPath id="clip-path">
      <rect id="Rectangle_47" data-name="Rectangle 47" width="2602.739" height="2308.84" fill="#f6df88"/>
    </clipPath>
  </defs>
  <path id="Path_65" data-name="Path 65" d="M1789.849,1351.09v957.75h98.26V1391.791l714.63-714.621-69.48-69.49Z" fill="#f6df88"/>
  <path id="Path_66" data-name="Path 66" d="M958.259,677.17l260.29,260.291,1.99,1.989,62.16,62.15,390.191,390.191V2308.84h98.259V1351.09l-743.41-743.41Z" fill="#f6df88"/>
  <g id="Group_4088" data-name="Group 4088">
    <g id="Group_4087" data-name="Group 4087" clip-path="url(#clip-path)">
      <path id="Path_67" data-name="Path 67" d="M1963.448,764.64a258.741,258.741,0,1,0,75.781,182.96,257.069,257.069,0,0,0-75.781-182.96M1780.5,1108.07c-88.489,0-160.479-71.99-160.479-160.47s71.99-160.48,160.479-160.48,160.47,71.99,160.47,160.48-71.99,160.47-160.47,160.47" fill="#f6df88"/>
      <path id="Path_68" data-name="Path 68" d="M831.843,2306.839h-87.9V1416.047L1408.99,751l62.158,62.158-639.3,639.3,367.841,572.051H831.843Z" fill="#f6df88"/>
      <path id="Path_69" data-name="Path 69" d="M727.208,2306.839H639.3V2028.362l-354.792.552L639.3,1452.458,0,813.154,62.158,751l665.05,665.051Z" fill="#f6df88"/>
      <path id="Path_70" data-name="Path 70" d="M899.239,891.411a231.449,231.449,0,1,0,67.8,163.669,229.913,229.913,0,0,0-67.8-163.669M735.569,1198.64c-79.15,0-143.55-64.4-143.55-143.56s64.4-143.56,143.55-143.56,143.56,64.4,143.56,143.56-64.4,143.56-143.56,143.56" fill="#f6df88"/>
      <path id="Path_71" data-name="Path 71" d="M1806.269,355.48q.555-6.42.86-12.85A326.684,326.684,0,0,0,1496.279.38a326.306,326.306,0,0,0-206.8,61.3c-6.58,4.32-6.58,4.32-12.66,0a326.814,326.814,0,0,0-517.65,280.95c-.52,31.12,9.42,66.02,9.42,66.02,5.02,22.57,28.17,92.05,99.409,172.93,96.391,109.45,248.991,258.07,350.551,355.88.68.66,1.36,1.31,2.03,1.95,24.38,23.48,45.75,43.96,62.57,60.16,13.74-13.23,30.47-29.4,49.36-47.78q9.6-9.33,19.93-19.41c100.99-98.62,249.01-246.1,343.86-353.8,71.239-80.88,96.39-147.36,101.409-169.93l11.79-53.01Zm-90.5-17.24a237.243,237.243,0,0,1-7.481,48.84l-9.12,34.73c-28.779,85.7-301.769,341.49-406.019,437.27-78.37-72-269.82-260.32-367.5-370.33-29-35-55.76-96.79-61-164-5.6-71.84,24.92-132.07,46.77-156.12a233.892,233.892,0,0,1,162.99-76.88,238.937,238.937,0,0,1,27.95.29,235.526,235.526,0,0,1,145.9,64.53l34.75,33.15.14-.16.139.16,34.75-33.15a235.532,235.532,0,0,1,145.9-64.53,238.937,238.937,0,0,1,27.95-.29,235.459,235.459,0,0,1,223.88,246.49" fill="#f6df88"/>
    </g>
  </g>
</svg>
